<svg t="1734494657975" class="icon" viewBox="0 0 1024 1024" version="1.1" xmlns="http://www.w3.org/2000/svg" p-id="6843" width="200" height="200"><path d="M27.016 680.908c0 30.928 25.072 56 56 56H930c30.928 0 56-25.072 56-56v-115.844c0-30.928-25.072-56-56-56H83.016c-30.928 0-56 25.072-56 56v115.844z" fill="#54BCE8" p-id="6844"></path><path d="M930 754.916H83.016c-40.804 0-74-33.196-74-74v-115.852c0-40.804 33.196-74 74-74H930c40.804 0 74 33.192 74 74v115.852c0 40.804-33.196 74-74 74zM83.016 527.064c-20.952 0-38 17.048-38 38v115.852c0 20.948 17.048 38 38 38H930c20.952 0 38-17.052 38-38v-115.852c0-20.952-17.048-38-38-38H83.016z" fill="#4A4A4A" p-id="6845"></path><path d="M881.236 835.864c0 68.096-55.716 123.816-123.812 123.816H258.612c-68.1 0-123.816-55.72-123.816-123.816v-425.76c0-68.1 55.716-123.816 123.816-123.816h498.804c68.1 0 123.82 55.716 123.82 123.816v425.76z" fill="#7FDDFF" p-id="6846"></path><path d="M345.284 575.208m-114.972 0a114.972 114.972 0 1 0 229.944 0 114.972 114.972 0 1 0-229.944 0Z" fill="#E6E8F3" p-id="6847"></path><path d="M345.284 707.184c-72.772 0-131.976-59.204-131.976-131.98 0-72.772 59.204-131.976 131.976-131.976 72.776 0 131.98 59.204 131.98 131.976 0 72.776-59.204 131.98-131.98 131.98z m0-229.944c-54.02 0-97.968 43.948-97.968 97.972 0 54.016 43.948 97.968 97.968 97.968s97.972-43.952 97.972-97.968c0-54.024-43.948-97.972-97.972-97.972z" fill="#4A4A4A" p-id="6848"></path><path d="M672.08 575.208m-114.972 0a114.972 114.972 0 1 0 229.944 0 114.972 114.972 0 1 0-229.944 0Z" fill="#E6E8F3" p-id="6849"></path><path d="M672.08 707.184c-72.768 0-131.976-59.204-131.976-131.98 0-72.772 59.208-131.976 131.976-131.976 72.776 0 131.984 59.204 131.984 131.976-0.008 72.776-59.208 131.98-131.984 131.98z m0-229.944c-54.016 0-97.968 43.948-97.968 97.972 0 54.016 43.952 97.968 97.968 97.968 54.024 0 97.976-43.952 97.976-97.968 0-54.024-43.956-97.972-97.976-97.972z" fill="#4A4A4A" p-id="6850"></path><path d="M757.416 977.684H258.612c-78.196 0-141.816-63.62-141.816-141.82v-425.76c0-78.196 63.62-141.816 141.816-141.816h498.804c78.204 0 141.82 63.62 141.82 141.816v425.756c0 78.204-63.62 141.824-141.82 141.824zM258.612 304.288c-58.348 0-105.816 47.468-105.816 105.816v425.756c0 58.352 47.468 105.82 105.816 105.82h498.804c58.352 0 105.82-47.468 105.82-105.82V410.104c0-58.348-47.468-105.816-105.82-105.816H258.612z" fill="#4A4A4A" p-id="6851"></path><path d="M320 555.212h48.792V604H320zM647.688 555.212h48.792V604h-48.792z" fill="#4A4A4A" p-id="6852"></path></svg>
